grf
version=1
nRows=17
nColumns=73
inDegrees=yes
endheader
time	ground_force_1_vx	ground_force_1_vy	ground_force_1_vz	ground_force_1_px	ground_force_1_py	ground_force_1_pz	ground_moment_1_mx	ground_moment_1_my	ground_moment_1_mz	ground_force_2_vx	ground_force_2_vy	ground_force_2_vz	ground_force_2_px	ground_force_2_py	ground_force_2_pz	ground_moment_2_mx	ground_moment_2_my	ground_moment_2_mz	ground_force_3_vx	ground_force_3_vy	ground_force_3_vz	ground_force_3_px	ground_force_3_py	ground_force_3_pz	ground_moment_3_mx	ground_moment_3_my	ground_moment_3_mz	ground_force_4_vx	ground_force_4_vy	ground_force_4_vz	ground_force_4_px	ground_force_4_py	ground_force_4_pz	ground_moment_4_mx	ground_moment_4_my	ground_moment_4_mz	ground_force_5_vx	ground_force_5_vy	ground_force_5_vz	ground_force_5_px	ground_force_5_py	ground_force_5_pz	ground_moment_5_mx	ground_moment_5_my	ground_moment_5_mz	ground_force_6_vx	ground_force_6_vy	ground_force_6_vz	ground_force_6_px	ground_force_6_py	ground_force_6_pz	ground_moment_6_mx	ground_moment_6_my	ground_moment_6_mz	ground_force_7_vx	ground_force_7_vy	ground_force_7_vz	ground_force_7_px	ground_force_7_py	ground_force_7_pz	ground_moment_7_mx	ground_moment_7_my	ground_moment_7_mz	ground_force_8_vx	ground_force_8_vy	ground_force_8_vz	ground_force_8_px	ground_force_8_py	ground_force_8_pz	ground_moment_8_mx	ground_moment_8_my	ground_moment_8_mz
2.149000	-61.417802	510.123737	15.266309	0.607567	0.000000	0.302989	-0.000000	2.740685	0.000000	0.000000	0.000000	0.000000	0.000000	0.000000	0.000000	0.000000	0.000000	0.000000	-61.169142	509.347779	15.144992	0.612420	0.000000	0.306338	-0.000000	2.953497	-0.000000	0.000000	0.000000	0.000000	0.000000	0.000000	0.000000	0.000000	0.000000	0.000000	-62.997746	510.411813	14.833508	0.612004	0.000000	0.304255	-0.000000	2.874153	0.000000	2.415217	7.138412	0.596733	0.172087	0.000000	0.422681	0.000000	-0.191474	0.000000	-63.176141	507.489315	14.387835	0.609778	0.000000	0.303756	-0.000000	2.737151	-0.000000	0.000000	0.000000	0.000000	0.000000	0.000000	0.000000	0.000000	0.000000	0.000000
2.150000	-60.894322	508.435447	15.357320	0.606671	0.000000	0.302957	-0.000000	2.748585	0.000000	0.000000	0.000000	0.000000	0.000000	0.000000	0.000000	0.000000	0.000000	0.000000	-60.666826	507.725352	15.252679	0.611481	0.000000	0.306320	-0.000000	2.965409	-0.000000	0.000000	0.000000	0.000000	0.000000	0.000000	0.000000	0.000000	0.000000	0.000000	-62.444731	508.797303	14.912186	0.611032	0.000000	0.304228	-0.000000	2.890765	0.000000	0.000000	0.000000	0.000000	0.000000	0.000000	0.000000	0.000000	0.000000	0.000000	-62.568968	505.783256	14.458123	0.608892	0.000000	0.303722	-0.000000	2.757600	-0.000000	0.000000	0.000000	0.000000	0.000000	0.000000	0.000000	0.000000	0.000000	0.000000
2.151000	-60.396862	506.753317	15.464746	0.605789	0.000000	0.302928	-0.000000	2.757272	0.000000	0.000000	0.000000	0.000000	0.000000	0.000000	0.000000	0.000000	0.000000	0.000000	-60.185366	506.106204	15.369557	0.610553	0.000000	0.306302	-0.000000	2.975125	-0.000000	0.000000	0.000000	0.000000	0.000000	0.000000	0.000000	0.000000	0.000000	0.000000	-61.909391	507.171691	14.998647	0.610069	0.000000	0.304200	-0.000000	2.905305	0.000000	0.000000	0.000000	0.000000	0.000000	0.000000	0.000000	0.000000	0.000000	0.000000	-61.983017	504.067223	14.537251	0.608014	0.000000	0.303690	-0.000000	2.774982	-0.000000	0.000000	0.000000	0.000000	0.000000	0.000000	0.000000	0.000000	0.000000	0.000000
2.152000	-59.926304	505.083100	15.591471	0.604918	0.000000	0.302905	-0.000000	2.767618	0.000000	0.000000	0.000000	0.000000	0.000000	0.000000	0.000000	0.000000	0.000000	0.000000	-59.725394	504.494943	15.497180	0.609635	0.000000	0.306286	-0.000000	2.983127	-0.000000	0.000000	0.000000	0.000000	0.000000	0.000000	0.000000	0.000000	0.000000	0.000000	-61.393118	505.542250	15.094009	0.609119	0.000000	0.304172	-0.000000	2.917429	0.000000	0.000000	0.000000	0.000000	0.000000	0.000000	0.000000	0.000000	0.000000	0.000000	-61.420598	502.350454	14.627733	0.607144	0.000000	0.303664	-0.000000	2.789488	-0.000000	0.000000	0.000000	0.000000	0.000000	0.000000	0.000000	0.000000	0.000000	0.000000
2.153000	-59.482567	503.428327	15.739654	0.604057	0.000000	0.302888	-0.000000	2.779983	0.000000	0.000000	0.000000	0.000000	0.000000	0.000000	0.000000	0.000000	0.000000	0.000000	-59.286498	502.894490	15.637202	0.608727	0.000000	0.306272	-0.000000	2.989590	-0.000000	0.000000	0.000000	0.000000	0.000000	0.000000	0.000000	0.000000	0.000000	0.000000	-60.897560	503.916213	15.199366	0.608181	0.000000	0.304145	-0.000000	2.927407	0.000000	0.000000	0.000000	0.000000	0.000000	0.000000	0.000000	0.000000	0.000000	0.000000	-60.884177	500.642146	14.731944	0.606280	0.000000	0.303644	-0.000000	2.801903	-0.000000	0.000000	0.000000	0.000000	0.000000	0.000000	0.000000	0.000000	0.000000	0.000000
2.154000	-59.064764	501.790871	15.909981	0.603206	0.000000	0.302877	-0.000000	2.794105	0.000000	0.000000	0.000000	0.000000	0.000000	0.000000	0.000000	0.000000	0.000000	0.000000	-58.867204	501.306250	15.790668	0.607828	0.000000	0.306260	-0.000000	2.994292	-0.000000	0.000000	0.000000	0.000000	0.000000	0.000000	0.000000	0.000000	0.000000	0.000000	-60.423845	502.299647	15.316162	0.607257	0.000000	0.304121	-0.000000	2.935773	0.000000	0.000000	0.000000	0.000000	0.000000	0.000000	0.000000	0.000000	0.000000	0.000000	-60.375666	498.949942	14.852111	0.605421	0.000000	0.303629	-0.000000	2.813111	-0.000000	0.000000	0.000000	0.000000	0.000000	0.000000	0.000000	0.000000	0.000000	0.000000
2.155000	-58.671345	500.171964	16.101207	0.602361	0.000000	0.302872	-0.000000	2.809315	0.000000	0.000000	0.000000	0.000000	0.000000	0.000000	0.000000	0.000000	0.000000	0.000000	-58.465225	499.730672	15.957339	0.606937	0.000000	0.306250	-0.000000	2.996873	-0.000000	0.000000	0.000000	0.000000	0.000000	0.000000	0.000000	0.000000	0.000000	0.000000	-59.972103	500.696744	15.446109	0.606347	0.000000	0.304100	-0.000000	2.942861	0.000000	0.000000	0.000000	0.000000	0.000000	0.000000	0.000000	0.000000	0.000000	0.000000	-59.895983	497.279028	14.990007	0.604564	0.000000	0.303618	-0.000000	2.823542	-0.000000	0.000000	0.000000	0.000000	0.000000	0.000000	0.000000	0.000000	0.000000	0.000000
2.156000	-58.300320	498.573143	16.310331	0.601519	0.000000	0.302871	-0.000000	2.824956	0.000000	0.000000	0.000000	0.000000	0.000000	0.000000	0.000000	0.000000	0.000000	0.000000	-58.077934	498.168085	16.135509	0.606052	0.000000	0.306241	-0.000000	2.997200	-0.000000	0.000000	0.000000	0.000000	0.000000	0.000000	0.000000	0.000000	0.000000	0.000000	-59.541389	499.109789	15.590614	0.605449	0.000000	0.304082	-0.000000	2.948558	0.000000	0.000000	0.000000	0.000000	0.000000	0.000000	0.000000	0.000000	0.000000	0.000000	-59.444956	495.632333	15.146602	0.603708	0.000000	0.303611	-0.000000	2.833006	-0.000000	0.000000	0.000000	0.000000	0.000000	0.000000	0.000000	0.000000	0.000000	0.000000
2.157000	-57.949195	496.996333	16.533299	0.600675	0.000000	0.302875	-0.000000	2.840710	0.000000	0.000000	0.000000	0.000000	0.000000	0.000000	0.000000	0.000000	0.000000	0.000000	-57.702666	496.619078	16.322371	0.605173	0.000000	0.306232	-0.000000	2.995593	-0.000000	0.000000	0.000000	0.000000	0.000000	0.000000	0.000000	0.000000	0.000000	0.000000	-59.129801	497.539465	15.749975	0.604564	0.000000	0.304068	-0.000000	2.952448	0.000000	0.000000	0.000000	0.000000	0.000000	0.000000	0.000000	0.000000	0.000000	0.000000	-59.021399	494.011168	15.321597	0.602850	0.000000	0.303606	-0.000000	2.840981	-0.000000	0.000000	0.000000	0.000000	0.000000	0.000000	0.000000	0.000000	0.000000	0.000000
2.158000	-57.614915	495.442930	16.765817	0.599825	0.000000	0.302883	-0.000000	2.856607	0.000000	0.000000	0.000000	0.000000	0.000000	0.000000	0.000000	0.000000	0.000000	0.000000	-57.336816	495.084150	16.514720	0.604297	0.000000	0.306226	-0.000000	2.992745	-0.000000	0.000000	0.000000	0.000000	0.000000	0.000000	0.000000	0.000000	0.000000	0.000000	-58.734868	495.985678	15.922901	0.603690	0.000000	0.304055	-0.000000	2.954210	0.000000	0.000000	0.000000	0.000000	0.000000	0.000000	0.000000	0.000000	0.000000	0.000000	-58.623394	492.416226	15.513106	0.601987	0.000000	0.303605	-0.000000	2.847054	-0.000000	0.000000	0.000000	0.000000	0.000000	0.000000	0.000000	0.000000	0.000000	0.000000
2.159000	-57.294177	493.912815	17.003887	0.598964	0.000000	0.302897	-0.000000	2.872707	0.000000	0.000000	0.000000	0.000000	0.000000	0.000000	0.000000	0.000000	0.000000	0.000000	-56.977943	493.563140	16.709644	0.603421	0.000000	0.306221	-0.000000	2.989424	-0.000000	0.000000	0.000000	0.000000	0.000000	0.000000	0.000000	0.000000	0.000000	0.000000	-58.353963	494.448480	16.106722	0.602825	0.000000	0.304044	-0.000000	2.953940	0.000000	0.000000	0.000000	0.000000	0.000000	0.000000	0.000000	0.000000	0.000000	0.000000	-58.248425	490.848604	15.717974	0.601114	0.000000	0.303608	-0.000000	2.851280	-0.000000	0.000000	0.000000	0.000000	0.000000	0.000000	0.000000	0.000000	0.000000	0.000000
2.160000	-56.983582	492.404161	17.243753	0.598087	0.000000	0.302917	-0.000000	2.888734	0.000000	0.000000	0.000000	0.000000	0.000000	0.000000	0.000000	0.000000	0.000000	0.000000	-56.623657	492.054899	16.904755	0.602541	0.000000	0.306218	-0.000000	2.986170	-0.000000	0.000000	0.000000	0.000000	0.000000	0.000000	0.000000	0.000000	0.000000	0.000000	-57.984477	492.928178	16.298073	0.601967	0.000000	0.304034	-0.000000	2.952191	0.000000	0.000000	0.000000	0.000000	0.000000	0.000000	0.000000	0.000000	0.000000	0.000000	-57.893335	489.309638	15.932547	0.600230	0.000000	0.303614	-0.000000	2.854205	-0.000000	0.000000	0.000000	0.000000	0.000000	0.000000	0.000000	0.000000	0.000000	0.000000
2.161000	-56.679510	490.913981	17.481461	0.597192	0.000000	0.302941	-0.000000	2.903945	0.000000	0.000000	0.000000	0.000000	0.000000	0.000000	0.000000	0.000000	0.000000	0.000000	-56.271383	490.557340	17.097884	0.601656	0.000000	0.306217	-0.000000	2.983172	-0.000000	0.000000	0.000000	0.000000	0.000000	0.000000	0.000000	0.000000	0.000000	0.000000	-57.623927	491.424753	16.493712	0.601114	0.000000	0.304026	-0.000000	2.949707	0.000000	0.000000	0.000000	0.000000	0.000000	0.000000	0.000000	0.000000	0.000000	0.000000	-57.554655	487.799691	16.153396	0.599331	0.000000	0.303622	-0.000000	2.856569	-0.000000	0.000000	0.000000	0.000000	0.000000	0.000000	0.000000	0.000000	0.000000	0.000000
2.162000	-56.378083	489.439041	17.712660	0.596278	0.000000	0.302966	-0.000000	2.917387	0.000000	0.000000	0.000000	0.000000	0.000000	0.000000	0.000000	0.000000	0.000000	0.000000	-55.918274	489.067896	17.286581	0.600760	0.000000	0.306216	-0.000000	2.980374	-0.000000	0.000000	0.000000	0.000000	0.000000	0.000000	0.000000	0.000000	0.000000	0.000000	-57.269934	489.937242	16.690990	0.600260	0.000000	0.304020	-0.000000	2.947089	0.000000	0.000000	0.000000	0.000000	0.000000	0.000000	0.000000	0.000000	0.000000	0.000000	-57.228925	486.317353	16.377689	0.598415	0.000000	0.303632	-0.000000	2.858957	-0.000000	0.000000	0.000000	0.000000	0.000000	0.000000	0.000000	0.000000	0.000000	0.000000
2.163000	-56.074988	487.976730	17.932811	0.595342	0.000000	0.302991	-0.000000	2.928418	0.000000	0.000000	0.000000	0.000000	0.000000	0.000000	0.000000	0.000000	0.000000	0.000000	-55.561194	487.584201	17.467807	0.599853	0.000000	0.306215	-0.000000	2.977742	-0.000000	0.000000	0.000000	0.000000	0.000000	0.000000	0.000000	0.000000	0.000000	0.000000	-56.919933	488.463407	16.887684	0.599403	0.000000	0.304015	-0.000000	2.944597	0.000000	0.000000	0.000000	0.000000	0.000000	0.000000	0.000000	0.000000	0.000000	0.000000	-56.912499	484.859557	16.602965	0.597480	0.000000	0.303642	-0.000000	2.861626	-0.000000	0.000000	0.000000	0.000000	0.000000	0.000000	0.000000	0.000000	0.000000	0.000000
2.164000	-55.765463	486.525286	18.137687	0.594384	0.000000	0.303014	-0.000000	2.937018	0.000000	0.000000	0.000000	0.000000	0.000000	0.000000	0.000000	0.000000	0.000000	0.000000	-55.196843	486.104637	17.638166	0.598932	0.000000	0.306211	-0.000000	2.975488	-0.000000	0.000000	0.000000	0.000000	0.000000	0.000000	0.000000	0.000000	0.000000	0.000000	-56.571006	486.999964	17.081435	0.598539	0.000000	0.304011	-0.000000	2.942199	0.000000	0.000000	0.000000	0.000000	0.000000	0.000000	0.000000	0.000000	0.000000	0.000000	-56.601317	483.422219	16.826557	0.596526	0.000000	0.303650	-0.000000	2.864543	-0.000000	0.000000	0.000000	0.000000	0.000000	0.000000	0.000000	0.000000	0.000000	0.000000
2.165000	-55.444799	485.083474	18.324023	0.593406	0.000000	0.303036	-0.000000	2.943607	0.000000	0.000000	0.000000	0.000000	0.000000	0.000000	0.000000	0.000000	0.000000	0.000000	-54.822106	484.628616	17.794752	0.597997	0.000000	0.306207	-0.000000	2.974049	-0.000000	0.000000	0.000000	0.000000	0.000000	0.000000	0.000000	0.000000	0.000000	0.000000	-56.219882	485.543269	17.269314	0.597664	0.000000	0.304005	-0.000000	2.939793	0.000000	0.000000	0.000000	0.000000	0.000000	0.000000	0.000000	0.000000	0.000000	0.000000	-56.290877	482.001034	17.045141	0.595552	0.000000	0.303657	-0.000000	2.867607	-0.000000	0.000000	0.000000	0.000000	0.000000	0.000000	0.000000	0.000000	0.000000	0.000000
